<svg xmlns="http://www.w3.org/2000/svg" xml:space="preserve" viewBox="0 0 176 200">
  <path d="M115.03978 17.002583c19.070938 10.721828 37.790649 21.364208 56.39946 32.19709 1.277786.743843 2.447647 2.908683 2.454452 4.418155.141068 31.311097.149811 62.623238-.018036 93.934067-.008697 1.620804-1.426269 3.907456-2.855713 4.746872-23.828659 13.992798-47.764 27.80394-71.675758 41.655243-2.210983 1.280746-4.341286 3.409668-6.654984 3.633026-3.225395.31134-7.068092.064224-9.811935-1.453171-14.056931-7.773788-27.822434-16.072738-41.736076-24.107986-11.262885-6.504425-22.663369-12.774185-33.839853-19.422028-2.773345-1.649597-4.460251-4.178466-4.428369-8.15567.234962-29.311233.166145-58.625336.072367-87.938156-.010491-3.279343.781399-5.28817 3.911672-7.018558C20.067041 42.189091 33.080582 34.5308 46.15477 26.983246c12.940037-7.47011 25.86055-14.974039 38.803825-22.438523 2.801316-1.61554 5.16639-2.166169 8.468079.064714 6.770889 4.57495 14.122742 8.29007 21.613106 12.393146M36.010891 157.51506c16.557045 9.556473 33.087154 19.160431 49.716312 28.589737 1.520867.862366 3.896271 1.2603 5.486916.723755 2.692055-.908035 5.079658-2.725433 7.5858-4.176849 19.046578-11.030716 37.947884-22.324646 57.216637-32.952408 6.388687-3.523682 9.475326-6.989624 9.253189-15.030655C164.548386 108.556892 165 82.41275 165 56.618099c-3.010696-1.676067-5.703186-3.122284-8.34584-4.654461-21.689133-12.575134-43.346161-25.206159-65.108048-37.653927-1.313126-.751107-3.812889-.732359-5.131363.024355C62.99733 27.774101 39.649155 41.336159 16.398998 55.063221c-1.589455.938423-3.242325 3.3806-3.255791 5.135788-.205723 26.814945-.204304 53.632404-.006317 80.447475.01327 1.797104 1.558749 4.253846 3.125309 5.250443 6.227965 3.962005 12.747151 7.466232 19.748692 11.618133z"/>
  <path d="M95.129333 46.610641c16.032959 9.216561 31.785721 18.140397 47.540833 27.06556-3.11644 7.290703-9.415604 8.334732-14.146896 11.301063-8.570893 5.373597-17.438813 10.273446-26.914505 15.797676 13.380447 8.080887 26.457946 15.978814 39.79187 24.031601-.967606 2.137223-1.818512 4.016716-3.180512 7.025094-13.965217-8.268532-27.790878-16.454445-42.152366-24.957612v47.407608c-10.561653 3.322007-18.628388-1.897369-26.780541-6.593307-9.744186-5.613022-19.454693-11.288361-29.065021-17.125641-1.400299-.85054-3.015229-2.765129-2.989956-4.159424.027-1.48983 1.559006-3.489975 2.985992-4.332153 11.871437-7.006264 23.870491-13.796295 36.584389-21.083466-3.406502-2.139495-6.272362-4.066833-9.256264-5.789756-9.17548-5.298005-18.387512-10.532975-27.603325-15.760743-3.885872-2.204315-4.206894-6.113594-.421249-8.299858 13.907097-8.03157 27.706367-16.286495 41.961861-23.653022 3.674789-1.898941 8.869178-.857209 13.64569-.87362m.87069 45.300065v3.076767c11.482216-6.561699 22.67559-12.958336 34.085564-19.478753C118.705376 68.914291 107.558746 62.455219 96 55.757339c0 12.333237 0 23.798417.000023 36.153367M82 81.481468v-25.48901C70.555458 62.604912 59.410728 69.044144 48.273479 75.47905 59.355598 81.78138 70.324005 88.019043 82 94.659119V81.481468m0 51.989418V106.99453c-11.447006 6.613197-22.58897 13.050155-33.722946 19.482506C59.364151 132.784164 70.3312 139.02301 82 145.661057v-12.190171z"/>
</svg>
