<svg xmlns="http://www.w3.org/2000/svg" version="1.1" xmlns:xlink="http://www.w3.org/1999/xlink" xmlns:svgjs="http://svgjs.com/svgjs" width="170.05498" height="193.47453"><svg version="1.1" id="SvgjsSvg1004" width="170.05498" height="193.47453" viewBox="0 0 170.05498 193.47453" sodipodi:docname="portfolio-logo.png" inkscape:export-filename="portfolio-logo.svg" inkscape:export-xdpi="96" inkscape:export-ydpi="96" xmlns:inkscape="http://www.inkscape.org/namespaces/inkscape" xmlns:sodipodi="http://sodipodi.sourceforge.net/DTD/sodipodi-0.dtd" xmlns="http://www.w3.org/2000/svg" xmlns:svg="http://www.w3.org/2000/svg">
  <defs id="SvgjsDefs1003"></defs>
  <sodipodi:namedview id="SvgjsSodipodi:namedview1002" pagecolor="#ffffff" bordercolor="#000000" borderopacity="0.25" inkscape:showpageshadow="2" inkscape:pageopacity="0.0" inkscape:pagecheckerboard="0" inkscape:deskcolor="#d1d1d1" showgrid="false"></sodipodi:namedview>
  <g inkscape:groupmode="layer" inkscape:label="Image" id="SvgjsG1001" transform="translate(-2.5693302,-3.8759346)">
    <path style="fill:#000000;stroke-width:0.999999" d="M 46.130686,174.05501 C 23.580664,161.11629 4.5681658,149.78901 3.8806698,148.88328 2.4857598,147.04552 2.0202348,54.049232 3.3959838,52.052319 4.3336088,50.691349 85.623466,4.2003968 87.630696,3.8771708 88.455686,3.7443208 107.8057,14.336602 130.63068,27.415567 l 41.50001,23.779933 0.2468,48.96162 0.24681,48.96159 -42.0471,24 c -23.1259,13.2 -42.361964,24.10378 -42.746754,24.23062 -0.3848,0.127 -19.149662,-10.3556 -41.699646,-23.29432 z m 80.007654,-7.55682 38.49237,-22.12056 V 100.11872 55.859811 L 126.13259,33.735984 87.634506,11.612145 49.132576,33.811461 10.63068,56.010766 v 44.107914 44.10792 l 38.249991,22.13522 c 21.037493,12.17439 38.365945,22.16262 38.507645,22.19607 0.14173,0.034 17.579224,-9.8934 38.750024,-22.0597 z M 60.130661,141.33099 C 31.566579,124.87376 32.174629,126.65422 51.369414,115.67684 81.427166,98.487062 80.616381,102.07519 57.451127,88.762413 31.27805,73.721065 31.117458,76.262079 59.261597,60.118734 82.644476,46.706404 85.312146,45.509201 86.752296,47.781226 c 0.95474,1.506293 1.21591,102.794304 0.27137,105.255714 -1.08136,2.81798 -3.54781,1.74437 -26.893043,-11.70595 z m 21.133342,-35.41228 c -0.46303,-0.46303 -32.42109,17.34875 -34.446954,19.19898 -1.048706,0.95777 2.278941,3.24227 16.500019,11.32777 l 17.813594,10.12808 0.271374,-20.12293 c 0.14929,-11.06759 0.0873,-20.30694 -0.137957,-20.5319 z m 0.04157,-50.958423 c -0.202205,-0.202204 -8.472718,4.250869 -18.379125,9.89548 L 44.914812,75.118734 63.022756,85.332983 81.130699,95.54727 81.402066,75.437499 c 0.14929,-11.060371 0.10583,-20.27512 -0.09637,-20.477212 z m 7.325093,45.765423 c -0.0435,-32.024084 -0.90416,-47.618226 -0.0763,-52.072751 0.96878,-5.213507 11.540224,2.230571 26.614644,10.925529 30.11338,17.369499 29.72882,13.842558 3.16739,29.048202 -15.68953,8.981821 -19.525984,11.57881 -18.499984,12.52309 0.711954,0.65521 9.731934,6.23021 20.044414,12.38887 19.69694,11.76303 19.53344,11.6264 17.40254,14.54056 -1.2627,1.72687 -2.61883,1.07857 -21.56417,-10.30885 -11.11922,-6.68341 -20.412854,-12.15163 -20.652544,-12.15163 -0.23963,0 -0.43582,11.02499 -0.43582,24.49999 0,24.49999 0,24.49999 -3,24.49999 -3,0 -2.92687,-3e-5 -3,-53.893 z M 115.63067,83.606003 c 7.97504,-4.539893 14.60108,-8.332838 14.7246,-8.428724 0.12359,-0.096 -6.40147,-3.949531 -14.49997,-8.563578 -8.09854,-4.614047 -16.187114,-9.244913 -17.974604,-10.29086 -3.25002,-1.901665 -3.25002,-1.901665 -3.25002,18.778658 0,20.680328 0,20.680328 3.25002,18.719623 1.78749,-1.078413 9.774994,-5.675226 17.749974,-10.215119 z" id="SvgjsPath1000" sodipodi:nodetypes="ssssscccssssscccccccccscsssssssssssscssssscccssssssssssssssssssssss" inkscape:export-filename="path355.svg" inkscape:export-xdpi="96" inkscape:export-ydpi="96"></path>
  </g>
</svg><style>@media (prefers-color-scheme: light) { :root { filter: none; } }
@media (prefers-color-scheme: dark) { :root { filter: invert(100%); } }
</style></svg>